<svg fill="none" height="68" viewBox="0 0 68 68" width="68" xmlns="http://www.w3.org/2000/svg"><circle cx="34" cy="34" fill="#fbfcfe" r="33.5" stroke="#f3f3f3"/><path d="m44.5347 24.802c2.2438 2.2452 2.2438 5.8853 0 8.1305-1.0316 1.0322-2.358 1.5899-3.708 1.6729-6.2527.6438-6.6726 6.7921-6.6726 6.7921l-.014-.0139c-.1042 1.3155-.6592 2.602-1.6648 3.6082-2.2438 2.2452-5.8817 2.2452-8.1255 0-2.2438-2.2451-2.2438-5.8852 0-8.1304 1.0641-1.0647 2.4416-1.6245 3.8353-1.6794 5.2793-.5604 6.347-5.2223 6.5503-6.6382.0762-1.3617.6342-2.7015 1.6738-3.7418 2.2438-2.2451 5.8817-2.2451 8.1255 0z" fill="#042aff"/></svg>