<svg fill="none" height="68" viewBox="0 0 68 68" width="68" xmlns="http://www.w3.org/2000/svg"><circle cx="34" cy="34" fill="#fbfcfe" r="33.5" stroke="#f3f3f3"/><g fill="#042aff"><path d="m42.6646 16.1753c2.2438 2.2452 2.2438 5.8853 0 8.1305-1.0506 1.0512-2.4068 1.6102-3.7825 1.677-5.3642.5743-6.4103 5.2135-6.5962 6.4733-.0383 1.4188-.5985 2.8262-1.6807 3.909-2.2438 2.2452-5.8817 2.2452-8.1255 0-2.2438-2.2451-2.2438-5.8852 0-8.1304 1.0483-1.049 2.4009-1.6078 3.7735-1.6766 6.2603-.6467 6.622-7.0473 6.622-7.0473l.0242.0248c.1508-1.2284.6973-2.4174 1.6397-3.3603 2.2438-2.2451 5.8817-2.2451 8.1255 0z"/><path d="m45.3739 30.6786c2.2438 2.2452 2.2438 5.8853 0 8.1304-1.0316 1.0323-2.358 1.59-3.7081 1.673-6.2525.6439-6.6725 6.7921-6.6725 6.7921l-.014-.0139c-.1042 1.3155-.6592 2.6019-1.6648 3.6082-2.2438 2.2452-5.8817 2.2452-8.1254 0-2.2438-2.2452-2.2438-5.8853-.0001-8.1304 1.0641-1.0647 2.4416-1.6245 3.8354-1.6794 5.2792-.5604 6.347-5.2224 6.5502-6.6383.0763-1.3617.6342-2.7014 1.6738-3.7417 2.2438-2.2452 5.8817-2.2452 8.1255 0z"/></g></svg>