<svg fill="none" height="68" viewBox="0 0 68 68" width="68" xmlns="http://www.w3.org/2000/svg"><circle cx="34" cy="34" fill="#fbfcfe" r="33.5" stroke="#f3f3f3"/><g fill="#042aff"><path d="m53.818 23.3013c0-3.1742-2.5731-5.7489-5.7473-5.7508-3.1742-.002-5.7473 2.5696-5.7473 5.7438s2.5731 5.7489 5.7473 5.7508c3.1742.002 5.7473-2.5696 5.7473-5.7438z"/><path d="m37.8835 14.7056c2.2438 2.2452 2.2438 5.8853 0 8.1304-1.0747 1.0753-2.469 1.6356-3.8769 1.6809-6.1083.7265-6.5214 6.7754-6.5214 6.7754l-.0134-.0133c-.1026 1.3183-.6577 2.6081-1.6655 3.6164-2.2437 2.2452-5.8816 2.2452-8.1254 0s-2.2438-5.8853 0-8.1304c.9944-.995 2.2626-1.5491 3.5619-1.6622 6.4988-.5009 6.869-7.0705 6.869-7.0705l.0094.0096c.155-1.2198.7005-2.3995 1.6368-3.3363 2.2438-2.2452 5.8817-2.2452 8.1255 0z"/><path d="m40.5928 31.0062c2.2438 2.2451 2.2438 5.8853 0 8.1304-1.0584 1.0591-2.4271 1.6186-3.8133 1.6785-5.1874.5625-6.3287 4.9308-6.5633 6.3458-.0054 1.4642-.5663 2.9268-1.6828 4.044-2.2438 2.2451-5.8817 2.2451-8.1254 0-2.2438-2.2452-2.2438-5.8853-.0001-8.1305.982-.9826 2.2311-1.5351 3.5134-1.6577l-.0055-.0054c6.4987-.5009 6.8699-7.0696 6.8699-7.0696l.0399.0408c.148-1.234.6953-2.4293 1.6417-3.3763 2.2438-2.2452 5.8817-2.2452 8.1255 0z"/></g></svg>